{
	"asset":{
		"generator":"Khronos glTF Blender I/O v4.3.47",
		"version":"2.0"
	},
	"scene":0,
	"scenes":[
		{
			"name":"Scene",
			"nodes":[
				0
			]
		}
	],
	"nodes":[
		{
			"mesh":0,
			"name":"dragon",
			"rotation":[
				0.7071068286895752,
				0,
				0,
				0.7071068286895752
			]
		}
	],
	"meshes":[
		{
			"name":"dragon",
			"primitives":[
				{
					"attributes":{
						"POSITION":0
					},
					"indices":1
				}
			]
		}
	],
	"accessors":[
		{
			"bufferView":0,
			"componentType":5126,
			"count":43457,
			"max":[
				0.20740999281406403,
				0.5278040170669556,
				0.2829410135746002
			],
			"min":[
				-0.23987700045108795,
				-0.472214013338089,
				-0.4219929873943329
			],
			"type":"VEC3"
		},
		{
			"bufferView":1,
			"componentType":5123,
			"count":261390,
			"type":"SCALAR"
		}
	],
	"bufferViews":[
		{
			"buffer":0,
			"byteLength":521484,
			"byteOffset":0,
			"target":34962
		},
		{
			"buffer":0,
			"byteLength":522780,
			"byteOffset":521484,
			"target":34963
		}
	],
	"buffers":[
		{
			"byteLength":1044264,
			"uri":"untitled.bin"
		}
	]
}
