{
	"asset":{
		"generator":"Khronos glTF Blender I/O v4.3.47",
		"version":"2.0"
	},
	"scene":0,
	"scenes":[
		{
			"name":"Scene",
			"nodes":[
				0,
				1
			]
		}
	],
	"nodes":[
		{
			"mesh":0,
			"name":"Mesh_0",
			"scale":[
				0.00800000037997961,
				0.00800000037997961,
				0.00800000037997961
			]
		},
		{
			"mesh":1,
			"name":"dragon",
			"rotation":[
				0.7071068286895752,
				0,
				0,
				0.7071068286895752
			],
			"translation":[
				0,
				0.9567918181419373,
				0
			]
		}
	],
	"meshes":[
		{
			"name":"Mesh_0",
			"primitives":[
				{
					"attributes":{
						"POSITION":0
					},
					"indices":1
				}
			]
		},
		{
			"name":"dragon",
			"primitives":[
				{
					"attributes":{
						"POSITION":2
					},
					"indices":3
				}
			]
		}
	],
	"accessors":[
		{
			"bufferView":0,
			"componentType":5126,
			"count":192496,
			"max":[
				1799.9080810546875,
				1429.4332275390625,
				1105.426025390625
			],
			"min":[
				-1920.9459228515625,
				-126.44249725341797,
				-1182.80712890625
			],
			"type":"VEC3"
		},
		{
			"bufferView":1,
			"componentType":5125,
			"count":786801,
			"type":"SCALAR"
		},
		{
			"bufferView":2,
			"componentType":5126,
			"count":43457,
			"max":[
				0.20740999281406403,
				0.5278040170669556,
				0.2829410135746002
			],
			"min":[
				-0.23987700045108795,
				-0.472214013338089,
				-0.4219929873943329
			],
			"type":"VEC3"
		},
		{
			"bufferView":3,
			"componentType":5123,
			"count":261390,
			"type":"SCALAR"
		}
	],
	"bufferViews":[
		{
			"buffer":0,
			"byteLength":2309952,
			"byteOffset":0,
			"target":34962
		},
		{
			"buffer":0,
			"byteLength":3147204,
			"byteOffset":2309952,
			"target":34963
		},
		{
			"buffer":0,
			"byteLength":521484,
			"byteOffset":5457156,
			"target":34962
		},
		{
			"buffer":0,
			"byteLength":522780,
			"byteOffset":5978640,
			"target":34963
		}
	],
	"buffers":[
		{
			"byteLength":6501420,
			"uri":"Sponza.bin"
		}
	]
}
